<svg xmlns="http://www.w3.org/2000/svg" xmlns:xlink="http://www.w3.org/1999/xlink" width="500" zoomAndPan="magnify" viewBox="0 0 375 374.999991" height="500" preserveAspectRatio="xMidYMid meet" version="1.0"><defs><clipPath id="35eb75619d"><path d="M 20.113281 1 L 354.613281 1 L 354.613281 374 L 20.113281 374 Z M 20.113281 1 " clip-rule="nonzero"/></clipPath></defs><path fill="#ffcc29" d="M 76.21875 180.414062 C 91.441406 194.1875 110.386719 207.160156 129.796875 217.136719 C 133.121094 205.5625 137.773438 193.988281 143.824219 182.875 C 144.953125 180.746094 146.28125 178.484375 147.679688 176.089844 C 149.207031 173.5625 150.535156 171.367188 151.800781 169.4375 C 158.445312 159.324219 165.890625 150.144531 173.9375 141.960938 C 166.558594 137.703125 158.847656 133.976562 150.9375 130.71875 C 130.527344 122.335938 109.191406 117.347656 90.578125 116.082031 C 73.160156 114.882812 58.601562 116.8125 50.492188 122.136719 C 48.164062 123.667969 46.570312 125.394531 45.773438 127.324219 C 45.109375 128.921875 44.777344 130.785156 44.777344 132.78125 C 44.777344 146.019531 57.539062 163.449219 76.21875 180.28125 Z M 76.21875 180.414062 " fill-opacity="1" fill-rule="evenodd"/><path fill="#ffcc29" d="M 207.371094 142.027344 C 215.480469 150.210938 222.925781 159.390625 229.574219 169.503906 C 230.839844 171.367188 232.167969 173.628906 233.695312 176.15625 C 235.160156 178.550781 236.421875 180.8125 237.550781 182.941406 C 243.535156 194.121094 248.1875 205.628906 251.578125 217.203125 C 270.988281 207.160156 289.933594 194.1875 305.15625 180.480469 C 323.902344 163.582031 336.597656 146.152344 336.597656 132.980469 C 336.597656 130.984375 336.265625 129.121094 335.601562 127.523438 C 334.804688 125.59375 333.140625 123.800781 330.882812 122.335938 C 322.707031 117.011719 308.214844 115.019531 290.796875 116.28125 C 272.183594 117.613281 250.847656 122.535156 230.4375 130.917969 C 222.527344 134.175781 214.816406 137.902344 207.4375 142.160156 Z M 207.371094 142.027344 " fill-opacity="1" fill-rule="evenodd"/><g clip-path="url(#35eb75619d)"><path fill="#424137" d="M 187.363281 152.140625 C 195.074219 159.722656 202.121094 168.304688 208.371094 177.820312 L 208.902344 178.683594 C 193.613281 182.675781 181.046875 182.675781 165.757812 178.683594 L 166.292969 177.820312 C 172.539062 168.304688 179.585938 159.722656 187.296875 152.140625 Z M 246.128906 1.453125 C 252.042969 1.453125 256.828125 6.242188 256.828125 12.164062 C 256.828125 18.085938 252.042969 22.875 246.128906 22.875 L 244.996094 22.875 C 235.757812 23.273438 227.914062 29.195312 222.328125 36.582031 C 217.742188 42.636719 214.75 49.554688 213.621094 55.273438 C 215.550781 56.339844 217.476562 57.539062 219.40625 58.867188 C 228.113281 65.1875 234.359375 73.902344 237.683594 83.550781 C 239.480469 88.871094 240.410156 94.527344 240.34375 100.183594 C 256.097656 95.457031 271.785156 92.53125 286.011719 91.53125 C 307.882812 90.003906 327.09375 93.0625 339.257812 101.046875 C 345.109375 104.90625 349.496094 109.894531 352.019531 116.015625 C 353.816406 120.40625 354.679688 124.929688 354.679688 129.585938 C 354.679688 149.347656 339.058594 172.296875 316.125 192.988281 C 298.308594 209.089844 275.839844 224.191406 252.972656 235.367188 C 255.433594 252 255.234375 268.566406 252.507812 284.199219 C 246.59375 317.796875 228.84375 347.535156 200.257812 366.292969 C 198.265625 367.625 196.402344 368.753906 194.808594 369.6875 C 192.949219 370.75 191.085938 371.816406 189.160156 372.746094 L 187.496094 373.613281 L 185.835938 372.746094 C 183.90625 371.75 181.980469 370.75 180.183594 369.6875 C 178.589844 368.753906 176.726562 367.625 174.734375 366.292969 C 146.148438 347.535156 128.46875 317.796875 122.484375 284.199219 C 119.691406 268.566406 119.492188 252 122.019531 235.367188 C 99.152344 224.191406 76.683594 209.089844 58.867188 192.988281 C 35.933594 172.296875 20.3125 149.347656 20.3125 129.585938 C 20.3125 124.929688 21.175781 120.40625 22.972656 116.015625 C 25.5 109.828125 29.886719 104.90625 35.734375 101.046875 C 47.898438 93.0625 67.042969 90.003906 88.914062 91.53125 C 104.667969 92.664062 122.152344 96.058594 139.503906 101.777344 C 139.167969 94.460938 140.433594 87.476562 143.023438 81.15625 C 146.746094 71.972656 153.195312 64.191406 161.171875 58.601562 C 162.769531 57.472656 164.429688 56.472656 166.160156 55.476562 C 165.09375 49.6875 162.035156 42.769531 157.382812 36.582031 C 151.800781 29.195312 143.957031 23.273438 134.714844 22.875 L 133.585938 22.875 C 127.667969 22.875 122.882812 18.085938 122.882812 12.164062 C 122.882812 6.242188 127.667969 1.453125 133.585938 1.453125 C 133.785156 1.453125 134.515625 1.453125 135.644531 1.519531 C 152.199219 2.253906 165.425781 11.765625 174.46875 23.675781 C 180.515625 31.65625 184.703125 40.90625 186.632812 49.355469 C 187.296875 49.289062 187.960938 49.289062 188.625 49.222656 C 190.15625 49.15625 191.683594 49.15625 193.28125 49.289062 C 195.273438 40.90625 199.460938 31.65625 205.445312 23.675781 C 214.417969 11.765625 227.648438 2.253906 244.199219 1.519531 C 245.328125 1.453125 245.996094 1.453125 246.261719 1.453125 Z M 217.675781 108.296875 L 217.742188 108.097656 C 219.539062 102.175781 219.335938 95.992188 217.410156 90.335938 C 215.480469 84.746094 211.894531 79.691406 206.90625 76.097656 C 201.191406 71.972656 195.007812 70.3125 189.160156 70.511719 C 183.441406 70.710938 177.859375 72.707031 173.203125 75.964844 C 168.550781 79.226562 164.828125 83.75 162.636719 89.136719 C 160.441406 94.59375 159.910156 100.980469 161.769531 107.699219 C 162.035156 108.632812 162.167969 109.628906 162.167969 110.558594 C 170.878906 114.417969 179.320312 118.875 187.363281 123.933594 C 197.003906 117.945312 207.238281 112.753906 217.675781 108.363281 Z M 219.539062 197.777344 C 223.394531 206.027344 226.382812 214.410156 228.578125 222.859375 C 196.003906 235.964844 178.65625 235.964844 146.148438 222.859375 C 148.34375 214.410156 151.402344 206.027344 155.191406 197.777344 C 177.324219 204.632812 197.402344 204.632812 219.539062 197.777344 Z M 232.566406 244.214844 C 233.894531 256.589844 233.496094 268.832031 231.4375 280.472656 L 231.304688 281.269531 C 202.585938 296.238281 172.273438 296.238281 143.558594 281.269531 L 143.425781 280.472656 C 141.363281 268.832031 140.964844 256.589844 142.292969 244.214844 C 177.125 257.453125 197.800781 257.453125 232.632812 244.214844 Z M 222.992188 307.882812 C 215.480469 324.25 203.914062 338.351562 188.558594 348.464844 L 188.558594 348.53125 L 187.429688 349.261719 C 187.03125 348.996094 186.632812 348.796875 186.300781 348.53125 L 186.300781 348.464844 C 170.945312 338.351562 159.378906 324.316406 151.867188 307.882812 C 176.0625 315.867188 198.730469 315.867188 222.992188 307.882812 Z M 170.746094 138.703125 C 163.367188 134.445312 155.65625 130.71875 147.746094 127.457031 C 127.335938 119.074219 106 114.085938 87.386719 112.820312 C 69.96875 111.625 55.410156 113.554688 47.300781 118.875 C 44.976562 120.40625 43.378906 122.136719 42.582031 124.066406 C 41.917969 125.660156 41.585938 127.523438 41.585938 129.519531 C 41.585938 142.761719 54.347656 160.191406 73.027344 177.023438 C 88.25 190.792969 107.195312 203.765625 126.605469 213.746094 C 129.929688 202.167969 134.582031 190.59375 140.632812 179.484375 C 141.761719 177.355469 143.089844 175.09375 144.488281 172.699219 C 146.015625 170.167969 147.347656 167.972656 148.609375 166.042969 C 155.257812 155.933594 162.703125 146.75 170.746094 138.570312 Z M 204.113281 138.703125 C 211.492188 134.445312 219.203125 130.71875 227.117188 127.457031 C 247.523438 119.074219 268.863281 114.085938 287.472656 112.820312 C 304.890625 111.625 319.449219 113.554688 327.558594 118.875 C 329.886719 120.40625 331.480469 122.136719 332.277344 124.066406 C 332.941406 125.660156 333.273438 127.523438 333.273438 129.519531 C 333.273438 142.761719 320.511719 160.191406 301.832031 177.023438 C 286.609375 190.792969 267.664062 203.765625 248.253906 213.746094 C 244.929688 202.167969 240.277344 190.59375 234.226562 179.484375 C 233.097656 177.355469 231.769531 175.09375 230.371094 172.699219 C 228.84375 170.167969 227.515625 167.972656 226.25 166.042969 C 219.605469 155.933594 212.160156 146.75 204.046875 138.570312 Z M 204.113281 138.703125 " fill-opacity="1" fill-rule="evenodd"/></g></svg>