<svg xmlns="http://www.w3.org/2000/svg" xmlns:xlink="http://www.w3.org/1999/xlink" width="500" zoomAndPan="magnify" viewBox="0 0 375 52.499999" height="70" preserveAspectRatio="xMidYMid meet" version="1.0"><defs><g/><clipPath id="7bcde44a74"><path d="M 1.769531 0 L 48.574219 0 L 48.574219 52 L 1.769531 52 Z M 1.769531 0 " clip-rule="nonzero"/></clipPath></defs><g fill="#ffffff" fill-opacity="1"><g transform="translate(56.226772, 50.14692)"><g><path d="M 0.453125 -36.84375 L 0.453125 -46.046875 L 32.8125 -46.046875 L 32.8125 -36.84375 L 21.875 -36.84375 L 21.875 0 L 11.390625 0 L 11.390625 -36.84375 Z M 0.453125 -36.84375 "/></g></g></g><g fill="#ffffff" fill-opacity="1"><g transform="translate(90.720048, 50.14692)"><g><path d="M 3.34375 0 L 3.34375 -28.625 L 13.234375 -28.625 L 13.234375 -24.5 L 13.34375 -24.5 C 13.414062 -24.644531 13.535156 -24.828125 13.703125 -25.046875 C 13.867188 -25.273438 14.226562 -25.664062 14.78125 -26.21875 C 15.34375 -26.78125 15.941406 -27.285156 16.578125 -27.734375 C 17.210938 -28.179688 18.03125 -28.582031 19.03125 -28.9375 C 20.03125 -29.289062 21.054688 -29.46875 22.109375 -29.46875 C 23.179688 -29.46875 24.238281 -29.316406 25.28125 -29.015625 C 26.320312 -28.722656 27.085938 -28.425781 27.578125 -28.125 L 28.359375 -27.6875 L 24.21875 -19.3125 C 22.988281 -20.351562 21.28125 -20.875 19.09375 -20.875 C 17.894531 -20.875 16.867188 -20.613281 16.015625 -20.09375 C 15.160156 -19.570312 14.554688 -18.9375 14.203125 -18.1875 C 13.847656 -17.445312 13.597656 -16.816406 13.453125 -16.296875 C 13.304688 -15.773438 13.234375 -15.363281 13.234375 -15.0625 L 13.234375 0 Z M 3.34375 0 "/></g></g></g><g fill="#ffffff" fill-opacity="1"><g transform="translate(119.74353, 50.14692)"><g><path d="M 5.296875 -3.53125 C 2.617188 -6.457031 1.28125 -10.039062 1.28125 -14.28125 C 1.28125 -18.53125 2.617188 -22.125 5.296875 -25.0625 C 7.984375 -28 11.390625 -29.46875 15.515625 -29.46875 C 19.304688 -29.46875 22.429688 -28.273438 24.890625 -25.890625 L 24.890625 -28.625 L 34.765625 -28.625 L 34.765625 0 L 25 0 L 25 -3.234375 L 24.890625 -3.234375 C 22.429688 -0.515625 19.304688 0.84375 15.515625 0.84375 C 11.390625 0.84375 7.984375 -0.613281 5.296875 -3.53125 Z M 13.703125 -19.140625 C 12.421875 -17.878906 11.78125 -16.257812 11.78125 -14.28125 C 11.78125 -12.3125 12.390625 -10.703125 13.609375 -9.453125 C 14.835938 -8.210938 16.457031 -7.59375 18.46875 -7.59375 C 20.40625 -7.59375 21.992188 -8.222656 23.234375 -9.484375 C 24.484375 -10.753906 25.109375 -12.351562 25.109375 -14.28125 C 25.109375 -16.257812 24.46875 -17.878906 23.1875 -19.140625 C 21.90625 -20.410156 20.332031 -21.046875 18.46875 -21.046875 C 16.570312 -21.046875 14.984375 -20.410156 13.703125 -19.140625 Z M 13.703125 -19.140625 "/></g></g></g><g fill="#ffffff" fill-opacity="1"><g transform="translate(159.092655, 50.14692)"><g><path d="M 10.609375 -28.625 L 17.578125 -13.0625 L 24.5625 -28.625 L 36.28125 -28.625 L 20.9375 0 L 14.234375 0 L -1.109375 -28.625 Z M 10.609375 -28.625 "/></g></g></g><g fill="#ffffff" fill-opacity="1"><g transform="translate(195.483619, 50.14692)"><g><path d="M 32.3125 -12.953125 L 11.546875 -12.953125 C 11.546875 -10.941406 12.195312 -9.453125 13.5 -8.484375 C 14.800781 -7.515625 16.21875 -7.03125 17.75 -7.03125 C 19.34375 -7.03125 20.601562 -7.242188 21.53125 -7.671875 C 22.46875 -8.097656 23.53125 -8.945312 24.71875 -10.21875 L 31.875 -6.640625 C 28.894531 -1.648438 23.941406 0.84375 17.015625 0.84375 C 12.703125 0.84375 9 -0.632812 5.90625 -3.59375 C 2.820312 -6.550781 1.28125 -10.113281 1.28125 -14.28125 C 1.28125 -18.445312 2.820312 -22.019531 5.90625 -25 C 9 -27.976562 12.703125 -29.46875 17.015625 -29.46875 C 21.554688 -29.46875 25.25 -28.15625 28.09375 -25.53125 C 30.945312 -22.90625 32.375 -19.15625 32.375 -14.28125 C 32.375 -13.613281 32.351562 -13.171875 32.3125 -12.953125 Z M 11.828125 -18.421875 L 22.71875 -18.421875 C 22.488281 -19.910156 21.898438 -21.050781 20.953125 -21.84375 C 20.003906 -22.644531 18.785156 -23.046875 17.296875 -23.046875 C 15.660156 -23.046875 14.359375 -22.617188 13.390625 -21.765625 C 12.421875 -20.910156 11.898438 -19.796875 11.828125 -18.421875 Z M 11.828125 -18.421875 "/></g></g></g><g fill="#ffffff" fill-opacity="1"><g transform="translate(230.367587, 50.14692)"><g><path d="M 3.34375 0 L 3.34375 -48 L 13.234375 -48 L 13.234375 0 Z M 3.34375 0 "/></g></g></g><g fill="#ffffff" fill-opacity="1"><g transform="translate(248.172394, 50.14692)"><g/></g></g><g fill="#ffffff" fill-opacity="1"><g transform="translate(264.637662, 50.14692)"><g><path d="M 3.34375 -46.046875 L 17.640625 -46.046875 C 21.953125 -46.046875 25.390625 -45.125 27.953125 -43.28125 C 30.523438 -41.4375 31.8125 -38.453125 31.8125 -34.328125 C 31.8125 -29.710938 29.894531 -26.421875 26.0625 -24.453125 C 32.613281 -23.296875 35.890625 -19.425781 35.890625 -12.84375 C 35.890625 -8.96875 34.546875 -5.859375 31.859375 -3.515625 C 29.179688 -1.171875 25.5 0 20.8125 0 L 3.34375 0 Z M 13.84375 -28.015625 L 14.671875 -28.015625 C 17.015625 -28.015625 18.765625 -28.421875 19.921875 -29.234375 C 21.078125 -30.054688 21.65625 -31.398438 21.65625 -33.265625 C 21.65625 -36.390625 19.328125 -37.953125 14.671875 -37.953125 L 13.84375 -37.953125 Z M 13.84375 -8.09375 L 17.140625 -8.09375 C 22.273438 -8.09375 24.84375 -9.804688 24.84375 -13.234375 C 24.84375 -15.273438 24.195312 -16.738281 22.90625 -17.625 C 21.625 -18.519531 19.703125 -18.96875 17.140625 -18.96875 L 13.84375 -18.96875 Z M 13.84375 -8.09375 "/></g></g></g><g fill="#ffffff" fill-opacity="1"><g transform="translate(303.037923, 50.14692)"><g><path d="M 32.3125 -12.953125 L 11.546875 -12.953125 C 11.546875 -10.941406 12.195312 -9.453125 13.5 -8.484375 C 14.800781 -7.515625 16.21875 -7.03125 17.75 -7.03125 C 19.34375 -7.03125 20.601562 -7.242188 21.53125 -7.671875 C 22.46875 -8.097656 23.53125 -8.945312 24.71875 -10.21875 L 31.875 -6.640625 C 28.894531 -1.648438 23.941406 0.84375 17.015625 0.84375 C 12.703125 0.84375 9 -0.632812 5.90625 -3.59375 C 2.820312 -6.550781 1.28125 -10.113281 1.28125 -14.28125 C 1.28125 -18.445312 2.820312 -22.019531 5.90625 -25 C 9 -27.976562 12.703125 -29.46875 17.015625 -29.46875 C 21.554688 -29.46875 25.25 -28.15625 28.09375 -25.53125 C 30.945312 -22.90625 32.375 -19.15625 32.375 -14.28125 C 32.375 -13.613281 32.351562 -13.171875 32.3125 -12.953125 Z M 11.828125 -18.421875 L 22.71875 -18.421875 C 22.488281 -19.910156 21.898438 -21.050781 20.953125 -21.84375 C 20.003906 -22.644531 18.785156 -23.046875 17.296875 -23.046875 C 15.660156 -23.046875 14.359375 -22.617188 13.390625 -21.765625 C 12.421875 -20.910156 11.898438 -19.796875 11.828125 -18.421875 Z M 11.828125 -18.421875 "/></g></g></g><g fill="#ffffff" fill-opacity="1"><g transform="translate(337.921892, 50.14692)"><g><path d="M 32.3125 -12.953125 L 11.546875 -12.953125 C 11.546875 -10.941406 12.195312 -9.453125 13.5 -8.484375 C 14.800781 -7.515625 16.21875 -7.03125 17.75 -7.03125 C 19.34375 -7.03125 20.601562 -7.242188 21.53125 -7.671875 C 22.46875 -8.097656 23.53125 -8.945312 24.71875 -10.21875 L 31.875 -6.640625 C 28.894531 -1.648438 23.941406 0.84375 17.015625 0.84375 C 12.703125 0.84375 9 -0.632812 5.90625 -3.59375 C 2.820312 -6.550781 1.28125 -10.113281 1.28125 -14.28125 C 1.28125 -18.445312 2.820312 -22.019531 5.90625 -25 C 9 -27.976562 12.703125 -29.46875 17.015625 -29.46875 C 21.554688 -29.46875 25.25 -28.15625 28.09375 -25.53125 C 30.945312 -22.90625 32.375 -19.15625 32.375 -14.28125 C 32.375 -13.613281 32.351562 -13.171875 32.3125 -12.953125 Z M 11.828125 -18.421875 L 22.71875 -18.421875 C 22.488281 -19.910156 21.898438 -21.050781 20.953125 -21.84375 C 20.003906 -22.644531 18.785156 -23.046875 17.296875 -23.046875 C 15.660156 -23.046875 14.359375 -22.617188 13.390625 -21.765625 C 12.421875 -20.910156 11.898438 -19.796875 11.828125 -18.421875 Z M 11.828125 -18.421875 "/></g></g></g><path fill="#ffcc29" d="M 9.621094 25.019531 C 11.75 26.929688 14.398438 28.730469 17.117188 30.113281 C 17.582031 28.507812 18.230469 26.902344 19.078125 25.359375 C 19.238281 25.066406 19.421875 24.753906 19.617188 24.421875 C 19.832031 24.070312 20.019531 23.765625 20.195312 23.496094 C 21.125 22.09375 22.167969 20.820312 23.292969 19.6875 C 22.257812 19.097656 21.179688 18.578125 20.074219 18.128906 C 17.21875 16.964844 14.234375 16.273438 11.628906 16.097656 C 9.191406 15.933594 7.15625 16.199219 6.019531 16.9375 C 5.695312 17.148438 5.472656 17.390625 5.359375 17.65625 C 5.265625 17.878906 5.21875 18.136719 5.21875 18.414062 C 5.21875 20.25 7.003906 22.667969 9.621094 25 Z M 9.621094 25.019531 " fill-opacity="1" fill-rule="evenodd"/><path fill="#ffcc29" d="M 27.96875 19.695312 C 29.105469 20.832031 30.148438 22.105469 31.078125 23.507812 C 31.253906 23.765625 31.441406 24.078125 31.652344 24.429688 C 31.859375 24.761719 32.035156 25.074219 32.195312 25.371094 C 33.03125 26.921875 33.683594 28.515625 34.15625 30.121094 C 36.871094 28.730469 39.523438 26.929688 41.652344 25.027344 C 44.277344 22.683594 46.050781 20.269531 46.050781 18.441406 C 46.050781 18.164062 46.007812 17.90625 45.914062 17.683594 C 45.800781 17.417969 45.570312 17.167969 45.253906 16.964844 C 44.109375 16.226562 42.082031 15.949219 39.644531 16.125 C 37.039062 16.308594 34.054688 16.992188 31.199219 18.15625 C 30.089844 18.609375 29.011719 19.125 27.980469 19.714844 Z M 27.96875 19.695312 " fill-opacity="1" fill-rule="evenodd"/><g clip-path="url(#7bcde44a74)"><path fill="#ffffff" d="M 25.171875 21.097656 C 26.25 22.148438 27.234375 23.339844 28.109375 24.660156 L 28.183594 24.78125 C 26.046875 25.332031 24.289062 25.332031 22.148438 24.78125 L 22.222656 24.660156 C 23.097656 23.339844 24.082031 22.148438 25.160156 21.097656 Z M 33.394531 0.199219 C 34.222656 0.199219 34.890625 0.867188 34.890625 1.6875 C 34.890625 2.507812 34.222656 3.171875 33.394531 3.171875 L 33.234375 3.171875 C 31.941406 3.226562 30.84375 4.046875 30.0625 5.074219 C 29.421875 5.914062 29.003906 6.871094 28.84375 7.664062 C 29.113281 7.8125 29.382812 7.980469 29.652344 8.164062 C 30.871094 9.039062 31.746094 10.25 32.210938 11.585938 C 32.464844 12.324219 32.59375 13.109375 32.585938 13.894531 C 34.789062 13.238281 36.984375 12.832031 38.972656 12.695312 C 42.035156 12.480469 44.722656 12.90625 46.425781 14.011719 C 47.242188 14.546875 47.855469 15.238281 48.210938 16.089844 C 48.460938 16.699219 48.582031 17.324219 48.582031 17.972656 C 48.582031 20.710938 46.398438 23.894531 43.1875 26.761719 C 40.695312 28.996094 37.550781 31.089844 34.351562 32.640625 C 34.695312 34.945312 34.667969 37.246094 34.285156 39.414062 C 33.457031 44.070312 30.976562 48.195312 26.976562 50.796875 C 26.695312 50.984375 26.4375 51.140625 26.210938 51.269531 C 25.953125 51.417969 25.691406 51.5625 25.421875 51.691406 L 25.191406 51.8125 L 24.957031 51.691406 C 24.6875 51.554688 24.417969 51.417969 24.167969 51.269531 C 23.941406 51.140625 23.683594 50.984375 23.402344 50.796875 C 19.402344 48.195312 16.929688 44.070312 16.09375 39.414062 C 15.703125 37.246094 15.675781 34.945312 16.027344 32.640625 C 12.828125 31.089844 9.683594 28.996094 7.191406 26.761719 C 3.984375 23.894531 1.796875 20.710938 1.796875 17.972656 C 1.796875 17.324219 1.917969 16.699219 2.167969 16.089844 C 2.523438 15.230469 3.136719 14.546875 3.953125 14.011719 C 5.65625 12.90625 8.335938 12.480469 11.394531 12.695312 C 13.601562 12.851562 16.046875 13.320312 18.472656 14.113281 C 18.425781 13.097656 18.605469 12.128906 18.96875 11.253906 C 19.488281 9.980469 20.390625 8.902344 21.507812 8.125 C 21.730469 7.96875 21.960938 7.832031 22.203125 7.691406 C 22.054688 6.890625 21.628906 5.929688 20.976562 5.074219 C 20.195312 4.046875 19.097656 3.226562 17.804688 3.171875 L 17.644531 3.171875 C 16.820312 3.171875 16.148438 2.507812 16.148438 1.6875 C 16.148438 0.867188 16.820312 0.199219 17.644531 0.199219 C 17.675781 0.199219 17.777344 0.199219 17.933594 0.210938 C 20.25 0.3125 22.101562 1.632812 23.367188 3.28125 C 24.214844 4.390625 24.800781 5.671875 25.070312 6.84375 C 25.160156 6.835938 25.253906 6.835938 25.347656 6.824219 C 25.5625 6.816406 25.777344 6.816406 26 6.835938 C 26.277344 5.671875 26.863281 4.390625 27.699219 3.28125 C 28.957031 1.632812 30.808594 0.3125 33.125 0.210938 C 33.28125 0.199219 33.375 0.199219 33.410156 0.199219 Z M 29.414062 15.019531 L 29.421875 14.992188 C 29.671875 14.167969 29.644531 13.3125 29.375 12.527344 C 29.105469 11.753906 28.601562 11.050781 27.90625 10.554688 C 27.105469 9.980469 26.242188 9.75 25.421875 9.777344 C 24.621094 9.804688 23.839844 10.082031 23.191406 10.535156 C 22.539062 10.988281 22.019531 11.613281 21.710938 12.359375 C 21.402344 13.117188 21.328125 14.003906 21.589844 14.933594 C 21.628906 15.066406 21.644531 15.203125 21.644531 15.332031 C 22.863281 15.867188 24.046875 16.484375 25.171875 17.1875 C 26.519531 16.355469 27.953125 15.636719 29.414062 15.027344 Z M 29.671875 27.429688 C 30.210938 28.570312 30.632812 29.734375 30.9375 30.90625 C 26.378906 32.722656 23.953125 32.722656 19.402344 30.90625 C 19.710938 29.734375 20.140625 28.570312 20.667969 27.429688 C 23.765625 28.378906 26.574219 28.378906 29.671875 27.429688 Z M 31.496094 33.867188 C 31.683594 35.582031 31.625 37.28125 31.335938 38.894531 L 31.320312 39.007812 C 27.300781 41.082031 23.058594 41.082031 19.042969 39.007812 L 19.023438 38.894531 C 18.734375 37.28125 18.679688 35.582031 18.863281 33.867188 C 23.738281 35.703125 26.632812 35.703125 31.503906 33.867188 Z M 30.15625 42.699219 C 29.105469 44.96875 27.488281 46.921875 25.339844 48.324219 L 25.339844 48.335938 L 25.179688 48.4375 C 25.125 48.398438 25.070312 48.371094 25.023438 48.335938 L 25.023438 48.324219 C 22.875 46.921875 21.253906 44.976562 20.203125 42.699219 C 23.589844 43.804688 26.761719 43.804688 30.15625 42.699219 Z M 22.84375 19.234375 C 21.8125 18.644531 20.734375 18.128906 19.628906 17.675781 C 16.773438 16.511719 13.785156 15.820312 11.183594 15.644531 C 8.746094 15.480469 6.707031 15.746094 5.574219 16.484375 C 5.246094 16.699219 5.023438 16.9375 4.914062 17.207031 C 4.820312 17.425781 4.773438 17.683594 4.773438 17.960938 C 4.773438 19.796875 6.558594 22.214844 9.171875 24.550781 C 11.300781 26.460938 13.953125 28.257812 16.667969 29.640625 C 17.132812 28.035156 17.785156 26.429688 18.632812 24.890625 C 18.789062 24.59375 18.976562 24.28125 19.171875 23.949219 C 19.386719 23.597656 19.570312 23.292969 19.75 23.027344 C 20.679688 21.625 21.71875 20.351562 22.84375 19.214844 Z M 27.515625 19.234375 C 28.546875 18.644531 29.625 18.128906 30.734375 17.675781 C 33.589844 16.511719 36.574219 15.820312 39.179688 15.644531 C 41.617188 15.480469 43.652344 15.746094 44.789062 16.484375 C 45.113281 16.699219 45.335938 16.9375 45.449219 17.207031 C 45.539062 17.425781 45.585938 17.683594 45.585938 17.960938 C 45.585938 19.796875 43.800781 22.214844 41.1875 24.550781 C 39.058594 26.460938 36.40625 28.257812 33.691406 29.640625 C 33.226562 28.035156 32.574219 26.429688 31.726562 24.890625 C 31.570312 24.59375 31.382812 24.28125 31.1875 23.949219 C 30.976562 23.597656 30.789062 23.292969 30.613281 23.027344 C 29.683594 21.625 28.640625 20.351562 27.503906 19.214844 Z M 27.515625 19.234375 " fill-opacity="1" fill-rule="evenodd"/></g></svg>