<svg xmlns="http://www.w3.org/2000/svg" version="1.1" xmlns:xlink="http://www.w3.org/1999/xlink" xmlns:svgjs="http://svgjs.com/svgjs" width="512" height="512" x="0" y="0" viewBox="0 0 512 512" style="enable-background:new 0 0 512 512" xml:space="preserve" class=""><g><path d="M82.877 311.122a19.9 19.9 0 0 0 11.104 3.38c6.45 0 12.783-3.116 16.64-8.879 32.317-48.292 86.34-77.123 144.511-77.123 57.999 0 111.933 28.699 144.273 76.77 6.167 9.165 18.594 11.596 27.758 5.43 9.165-6.166 11.596-18.594 5.43-27.758-25.839-38.406-62.885-66.745-105.219-81.905C352.762 180.298 369 148.761 369 113.5c0-62.309-50.691-113-113-113s-113 50.691-113 113c0 35.008 16.002 66.347 41.076 87.091-42.996 15.104-80.599 43.786-106.698 82.786-6.143 9.18-3.681 21.602 5.499 27.745zM256 40.5c40.252 0 73 32.748 73 73s-32.748 73-73 73-73-32.748-73-73 32.748-73 73-73zm79.758 314.13-29.816 21.509c-4.436 3.2-6.293 8.873-4.598 14.051l12.007 34.802a12.62 12.62 0 0 1 .637 4.508c-.425 9.347-12.14 15.741-20.732 9.543l-29.815-21.515a12.703 12.703 0 0 0-7.44-2.4c-2.611 0-5.222.8-7.44 2.4l-29.815 21.515c-8.592 6.198-20.363-.196-20.735-9.543a12.82 12.82 0 0 1 .65-4.508l11.996-34.802c1.695-5.178-.162-10.851-4.598-14.051l-29.816-21.509c-9.92-7.156-4.822-24.13 7.44-24.13h36.854c5.484 0 10.344-2.111 12.038-7.289l11.388-35.027c1.895-5.789 6.966-8.684 12.038-8.684s10.143 2.895 12.038 8.684l11.388 35.027c1.695 5.178 6.554 7.289 12.038 7.289h36.854c12.261 0 17.359 16.974 7.439 24.13zm171 70-29.816 21.509c-4.436 3.2-6.293 8.873-4.598 14.051l12.007 34.802a12.62 12.62 0 0 1 .637 4.508c-.425 9.347-12.14 15.741-20.732 9.543l-29.815-21.515c-2.218-1.6-4.829-2.4-7.44-2.4s-5.222.8-7.44 2.4l-29.815 21.515c-8.592 6.198-20.363-.196-20.735-9.543a12.82 12.82 0 0 1 .65-4.508l11.996-34.802c1.695-5.178-.162-10.851-4.598-14.051l-29.816-21.509c-9.92-7.156-4.822-24.13 7.44-24.13h36.854c5.484 0 10.344-2.111 12.038-7.289l11.388-35.027c1.895-5.789 6.966-8.684 12.038-8.684s10.143 2.895 12.038 8.684l11.388 35.027c1.695 5.178 6.554 7.289 12.038 7.289h36.854c12.261 0 17.359 16.974 7.439 24.13zm-342 0-29.816 21.509c-4.436 3.2-6.293 8.873-4.598 14.051l12.007 34.802a12.62 12.62 0 0 1 .637 4.508c-.425 9.347-12.14 15.741-20.732 9.543L92.44 487.528c-2.218-1.6-4.829-2.4-7.44-2.4s-5.222.8-7.44 2.4l-29.815 21.515c-8.592 6.198-20.363-.196-20.735-9.543a12.82 12.82 0 0 1 .65-4.508l11.996-34.802c1.695-5.178-.162-10.851-4.598-14.051L5.242 424.63c-9.92-7.156-4.822-24.13 7.44-24.13h36.854c5.484 0 10.344-2.111 12.038-7.289l11.388-35.027c1.895-5.789 6.966-8.684 12.038-8.684s10.143 2.895 12.038 8.684l11.388 35.027c1.695 5.178 6.554 7.289 12.038 7.289h36.854c12.262 0 17.36 16.974 7.44 24.13z" fill="#f47859" data-original="#000000" class=""></path></g></svg>